<?xml version="1.0" encoding="utf-8"?>
<!-- Generator: Adobe Illustrator 16.0.0, SVG Export Plug-In . SVG Version: 6.00 Build 0)  -->
<!DOCTYPE svg PUBLIC "-//W3C//DTD SVG 1.1//EN" "http://www.w3.org/Graphics/SVG/1.1/DTD/svg11.dtd">
<svg version="1.1" id="图层_1" xmlns="http://www.w3.org/2000/svg" xmlns:xlink="http://www.w3.org/1999/xlink" x="0px" y="0px"
	 width="90px" height="90px" viewBox="0 0 90 90" enable-background="new 0 0 90 90" xml:space="preserve">
<linearGradient id="SVGID_1_" gradientUnits="userSpaceOnUse" x1="44.8999" y1="90" x2="44.8999" y2="-0.125">
	<stop  offset="0" style="stop-color:#FFAE32"/>
	<stop  offset="0.751" style="stop-color:#FFD62B"/>
</linearGradient>
<path fill="url(#SVGID_1_)" d="M59.549,28.018c0.975-0.975,1.461-2.436,1.461-3.896c0-2.922-2.435-5.358-5.357-5.358
	C57.6,17.789,71.726,8.047,66.368,3.664C61.01-1.207,48.833,0.361,44.449-0.125c-3.896,0.486-16.561-1.082-22.405,3.789
	c-4.871,4.383,9.254,13.638,11.203,15.099c-2.923,0-5.358,2.437-5.358,5.358c0,1.461,0.487,2.922,1.461,3.896
	C15.225,35.324,0,52.859,0,73.316C0,77.215,1.975,90,1.975,90h86.25c0,0,1.573-12.785,1.573-16.684
	C89.799,52.859,73.675,35.324,59.549,28.018L59.549,28.018z"/>
<path fill="#FFFFFF" d="M57.353,67.032h-9.584v9.04c0,1.131-1.718,2.26-2.802,2.26c-1.716,0-2.802-1.129-2.802-2.26v-9.04h-9.673
	c-1.131,0-2.26-1.719-2.26-2.803c0-1.085,1.129-2.804,2.26-2.804h9.583V55.73h-9.583c-1.131,0-2.26-1.717-2.26-2.802
	c0-1.086,1.129-2.803,2.26-2.803h7.322l-8.453-6.825c-1.129-1.13-1.129-2.803,0-3.979c1.131-1.175,2.803-1.13,3.979,0l9.58,7.911
	l9.042-8.498c1.129-1.13,2.802-1.13,3.978,0c1.175,1.13,1.13,2.802,0,3.978l-8.499,7.368h7.323c1.718,0,2.261,1.129,2.261,2.802
	c0,1.674-1.13,2.803-2.261,2.803h-9.04v5.65h9.04c1.718,0,2.803,1.718,2.803,2.803S58.481,67.032,57.353,67.032L57.353,67.032z"/>
<path fill="#F4EA2A" d="M54.979,72.344"/>
</svg>
